<?xml version="1.0" encoding="utf-8"?>
<!-- Generator: Adobe Illustrator 24.1.2, SVG Export Plug-In . SVG Version: 6.00 Build 0)  -->
<svg version="1.1" id="g" xmlns="http://www.w3.org/2000/svg" xmlns:xlink="http://www.w3.org/1999/xlink" x="0px" y="0px"
	 viewBox="0 0 1000 1000" style="enable-background:new 0 0 1000 1000;" xml:space="preserve">
<style type="text/css">
	.st0{fill:#FFFFFF;}
	.st1{fill:#43BEE5;stroke:#43BEE5;stroke-width:12;stroke-miterlimit:10;}
	.st2{fill:none;stroke:#43BEE5;stroke-width:12;stroke-miterlimit:10;}
	.st3{fill:none;stroke:#F40058;stroke-width:18;stroke-miterlimit:10;}
	.st4{fill:none;stroke:#41B853;stroke-width:12;stroke-miterlimit:10;}
	.st5{fill:none;stroke:#EFA500;stroke-width:12;stroke-miterlimit:10;}
	.st6{fill:none;stroke:#F40058;stroke-width:8;stroke-miterlimit:10;}
	.st7{fill:none;stroke:#41B853;stroke-width:8;stroke-miterlimit:10;}
	.st8{fill:none;stroke:#EFA500;stroke-width:8;stroke-miterlimit:10;}
	.st9{fill:none;stroke:#EBA500;stroke-width:8;stroke-miterlimit:10;}
	.st10{fill:#EFA500;}
	.st11{fill:#41B853;}
	.st12{fill:#F40058;}
	.st13{fill:#F3F3F3;}
	.st14{fill:#EFEFEF;}
	.st15{fill-rule:evenodd;clip-rule:evenodd;fill:#FFFFFF;}
</style>
<line class="st0" x1="459.5" y1="372.5" x2="590.5" y2="484.5"/>
<path class="st1" d="M479,340"/>
<path class="st1" d="M479,999"/>
<path class="st2" d="M575.7,568.29"/>
<path class="st2" d="M371,364"/>
<path class="st1" d="M605,614"/>
<path class="st1" d="M605,992"/>
<path class="st1" d="M515,188"/>
<path class="st1" d="M515,1000"/>
<path class="st1" d="M437,282"/>
<path class="st1" d="M437,1001"/>
<path class="st1" d="M591,303"/>
<path class="st1" d="M591,1000"/>
<path class="st1" d="M555,260"/>
<path class="st1" d="M555,1001"/>
<line class="st3" x1="498" y1="999" x2="498" y2="94"/>
<line class="st4" x1="533" y1="1001" x2="533" y2="252"/>
<line class="st5" x1="468" y1="999" x2="468" y2="187"/>
<line class="st6" x1="500" y1="696" x2="715" y2="481"/>
<line class="st6" x1="650" y1="546" x2="650" y2="357"/>
<path class="st7" d="M738,269"/>
<path class="st7" d="M650,357"/>
<line class="st8" x1="468" y1="773" x2="290" y2="594"/>
<line class="st7" x1="533" y1="568" x2="387" y2="423"/>
<line class="st7" x1="388" y1="426" x2="388" y2="303"/>
<line class="st9" x1="291" y1="597" x2="291" y2="542"/>
<circle class="st10" cx="291.5" cy="499.5" r="47.5"/>
<circle class="st11" cx="230.5" cy="235.5" r="47.5"/>
<circle class="st12" cx="649.5" cy="311.5" r="47.5"/>
<circle class="st12" cx="745.5" cy="450.5" r="47.5"/>
<line class="st7" x1="387.11" y1="391.06" x2="264.03" y2="268.97"/>
<circle class="st10" cx="468" cy="175" r="13"/>
<circle class="st11" cx="533" cy="242" r="13"/>
<circle class="st11" cx="388" cy="295" r="13"/>
<line class="st9" x1="381" y1="684" x2="381" y2="622"/>
<circle class="st10" cx="381" cy="610" r="13"/>
<circle class="st12" cx="498" cy="78" r="20"/>
<line class="st8" x1="468.5" y1="907.72" x2="597.11" y2="779.11"/>
<line class="st9" x1="596" y1="782" x2="596" y2="739"/>
<circle class="st10" cx="596" cy="729" r="13"/>
<line class="st3" x1="498" y1="500" x2="498" y2="902"/>
<line class="st5" x1="468" y1="477" x2="468" y2="547"/>
<line class="st6" x1="650" y1="311" x2="750.5" y2="210.5"/>
<circle class="st12" cx="758" cy="201" r="13"/>
<path class="st13" d="M292.77,462.17c-0.05,0.19,0.09,0.21,0.22,0.22c2.91,0.41,5.25,1.84,7.18,4c0.86,0.96,1.45,2.11,2.07,3.23
	c1.32,2.38,2.65,4.75,4.04,7.09c1.08,1.82,2.1,3.68,3.16,5.52c1.06,1.84,2.15,3.66,3.21,5.49c1.06,1.83,2.09,3.68,3.15,5.52
	c1.11,1.93,2.25,3.85,3.36,5.78c1.13,1.96,2.21,3.95,3.34,5.91c1.15,1.99,2.36,3.96,3.39,6.01c0.56,1.1,0.84,2.29,1,3.52
	c0.34,2.54-0.16,4.91-1.37,7.15c-1.37,2.52-3.36,4.34-6.04,5.39c-1.16,0.45-2.34,0.7-3.58,0.8c-3.1,0.25-5.83-0.62-8.27-2.51
	c-1.54-1.19-2.62-2.74-3.57-4.41c-1.05-1.86-2.14-3.7-3.21-5.55c-0.78-1.34-1.55-2.69-2.33-4.04c-0.98-1.69-1.96-3.38-2.93-5.08
	c-1.05-1.84-2.1-3.68-3.15-5.52c-0.43-0.74-0.87-1.48-1.32-2.26c-0.22-0.16-0.33-0.36-0.44-0.56c-3.31-5.89-6.77-11.71-10.12-17.58
	c-1.6-2.81-2.08-5.8-1.32-8.97c0.06-0.24,0.22-0.44,0.26-0.73c0.74-1.95,1.72-3.7,3.23-5.1c1.79-1.65,3.85-2.77,6.29-3.1
	c0.11-0.01,0.17-0.07,0.19-0.19C290.37,462.17,291.54,462.17,292.77,462.17z"/>
<path class="st0" d="M279.5,470.58c-0.08,0.69-0.2,1.39-0.31,2.09c-0.26,1.65-0.09,3.26,0.37,4.86c0.5,1.73,1.45,3.23,2.33,4.76
	c1.35,2.33,2.7,4.67,4.05,7c1.36,2.35,2.72,4.7,4.08,7.05c0.38,0.65,0.73,1.32,1.09,2.02c-0.87,1.51-1.74,2.98-2.6,4.45
	c-0.99,1.68-1.97,3.37-2.95,5.06c-0.91,1.56-1.82,3.12-2.73,4.69c-1.04,1.78-2.07,3.56-3.11,5.35c-0.46,0.79-0.9,1.58-1.39,2.39
	c-0.43-0.1-0.17-0.34-0.12-0.51c0.8-2.57,0.87-5.14,0.01-7.69c-1.2-3.54-3.6-5.97-7.1-7.21c-4.62-1.63-8.74-0.67-12.3,2.69
	c-0.22,0.21-0.42,0.52-0.84,0.37c1.68-3.03,3.36-6.03,5.1-9.01c1.72-2.95,3.42-5.9,5.11-8.87c1.42-2.49,2.86-4.96,4.31-7.44
	c1.42-2.44,2.86-4.88,4.28-7.33C277.69,473.74,278.57,472.17,279.5,470.58z"/>
<path class="st14" d="M257.96,507.92c0.26,0.05,0.42-0.11,0.58-0.28c1.83-1.89,4.02-3.08,6.62-3.53c2.21-0.38,4.34-0.06,6.42,0.74
	c1.5,0.58,2.83,1.45,3.96,2.57c1.8,1.8,2.96,3.98,3.32,6.53c0.26,1.85,0.17,3.68-0.34,5.48c-0.08,0.28-0.18,0.55-0.24,0.85
	c-0.43,1.09-1.04,2.06-1.75,2.96c-0.8,1.03-1.72,1.96-2.81,2.7c-1.31,0.89-2.75,1.48-4.32,1.75c-0.45,0.08-0.88,0.1-1.38,0.11
	c-0.6-0.03-1.14-0.08-1.73,0c-2.59-0.07-4.8-1.03-6.78-2.6c-2.37-1.89-3.72-4.39-4.24-7.32c-0.45-2.56-0.08-5.05,1.13-7.37
	c0.43-0.82,0.97-1.59,1.47-2.42c0.02-0.06,0.04-0.08,0.08-0.13C257.96,507.92,257.96,507.92,257.96,507.92z"/>
<path class="st0" d="M228.22,205.41c0-0.09,0.04-0.16,0.27-0.21c0.48-0.06,0.82-0.04,1.1-0.16c1.24-0.53,2.47-1.05,3.67-1.66
	c0.58-0.29,1.6,0,1.64-1.11c4.21-0.69,8.38-0.19,12.56,0.45c0,3.24,0,6.4,0,9.42c-2.67,0.24-5.28,0.48-8.03,0.66
	c-1.01-0.49-1.27-0.29-1.2,0.76c-0.23,0.17-0.46,0.33-0.85,0.52c-0.61,0.35-1.11,0.64-1.46,1.05c-0.12,0.15,0.15,0.62,0.25,0.95
	c-0.13,3.42-0.27,6.84-0.41,10.34c3.84,0,7.45,0,11.15,0c-0.58,3.81-1.14,7.55-1.72,11.38c-3.03,0-6.1,0-9.27,0
	c0,9.43,0,18.76,0,28.02c-0.63,0.19-1.14,0.34-1.58,0.59c-3.06,0.09-6.2,0.09-9.45,0.09c-0.53-0.24-0.94-0.48-1.58-0.85
	c0-9.02,0-18.37,0-27.82c-3.43,0-6.74,0-10.1,0c0-3.82,0-7.54,0-11.36c3.34,0,6.65,0,10.09,0c0-3.12,0-6.15,0.1-9.31
	c0.78-0.58,1.52-1.03,0.18-1.59c0.14-1.01,0.27-2.02,0.54-3.13c0.36-0.29,0.68-0.45,0.8-0.71c0.33-0.69,0.63-1.4,0.83-2.13
	c0.14-0.53,0.1-1.11,0.14-1.66c0.31-0.41,0.61-0.82,1.1-1.26C228.14,206.76,228.3,206.19,228.22,205.41z"/>
<path class="st0" d="M234.81,202.25c0.06,1.12-0.96,0.83-1.54,1.13c-1.2,0.61-2.44,1.13-3.67,1.66c-0.28,0.12-0.63,0.11-1.05,0.15
	c1.3-1.48,3.18-2.06,5.01-2.7C233.93,202.35,234.33,202.31,234.81,202.25z"/>
<path class="st0" d="M225.83,208.02c0.02,0.49,0.06,1.07-0.08,1.59c-0.2,0.73-0.5,1.44-0.83,2.13c-0.12,0.25-0.44,0.41-0.76,0.61
	C224.64,210.94,225.2,209.51,225.83,208.02z"/>
<path class="st0" d="M236.25,216.04c-0.17-0.29-0.45-0.77-0.33-0.91c0.34-0.42,0.85-0.7,1.39-1.03
	C237.05,214.74,236.69,215.37,236.25,216.04z"/>
<path class="st0" d="M223.56,215.67c1.35,0.46,0.62,0.91-0.14,1.38C223.4,216.63,223.47,216.2,223.56,215.67z"/>
<path class="st0" d="M228.14,205.44c0.16,0.75-0.01,1.32-1.07,1.22C227.33,206.27,227.7,205.87,228.14,205.44z"/>
<path class="st0" d="M238.3,213.51c-0.14-1,0.12-1.21,1.03-0.7C239.04,213.07,238.71,213.27,238.3,213.51z"/>
<path class="st15" d="M650.11,277c-9.48,0-10.66,0.04-14.38,0.21c-3.71,0.17-6.25,0.76-8.47,1.62c-2.29,0.89-4.24,2.08-6.18,4.02
	c-1.94,1.94-3.13,3.89-4.02,6.18c-0.86,2.22-1.45,4.76-1.62,8.47c-0.17,3.72-0.21,4.91-0.21,14.38c0,9.48,0.04,10.66,0.21,14.38
	c0.17,3.71,0.76,6.25,1.62,8.47c0.89,2.29,2.08,4.24,4.02,6.18c1.94,1.94,3.89,3.13,6.18,4.02c2.22,0.86,4.76,1.45,8.47,1.62
	c3.72,0.17,4.91,0.21,14.38,0.21c9.48,0,10.66-0.04,14.38-0.21c3.71-0.17,6.25-0.76,8.47-1.62c2.29-0.89,4.24-2.08,6.18-4.02
	c1.94-1.94,3.13-3.89,4.02-6.18c0.86-2.22,1.45-4.76,1.62-8.47c0.17-3.72,0.21-4.91,0.21-14.38c0-9.48-0.04-10.66-0.21-14.38
	c-0.17-3.71-0.76-6.25-1.62-8.47c-0.89-2.29-2.08-4.24-4.02-6.18c-1.94-1.94-3.89-3.13-6.18-4.02c-2.22-0.86-4.76-1.45-8.47-1.62
	C660.77,277.04,659.59,277,650.11,277z M650.11,283.29c9.32,0,10.42,0.04,14.1,0.2c3.4,0.16,5.25,0.72,6.48,1.2
	c1.63,0.63,2.79,1.39,4.01,2.61c1.22,1.22,1.98,2.38,2.61,4.01c0.48,1.23,1.05,3.08,1.2,6.48c0.17,3.68,0.2,4.78,0.2,14.1
	c0,9.32-0.04,10.42-0.2,14.1c-0.16,3.4-0.72,5.25-1.2,6.48c-0.63,1.63-1.39,2.79-2.61,4.01c-1.22,1.22-2.38,1.98-4.01,2.61
	c-1.23,0.48-3.08,1.05-6.48,1.2c-3.68,0.17-4.78,0.2-14.1,0.2c-9.32,0-10.42-0.04-14.1-0.2c-3.4-0.15-5.25-0.72-6.48-1.2
	c-1.63-0.63-2.79-1.39-4.01-2.61c-1.22-1.22-1.98-2.38-2.61-4.01c-0.48-1.23-1.05-3.08-1.2-6.48c-0.17-3.68-0.2-4.78-0.2-14.1
	c0-9.32,0.04-10.42,0.2-14.1c0.16-3.4,0.72-5.25,1.2-6.48c0.63-1.63,1.39-2.79,2.61-4.01c1.22-1.22,2.38-1.98,4.01-2.61
	c1.23-0.48,3.08-1.05,6.48-1.2C639.69,283.32,640.8,283.29,650.11,283.29z M650.11,323.52c-6.42,0-11.63-5.21-11.63-11.63
	c0-6.42,5.21-11.63,11.63-11.63c6.42,0,11.63,5.21,11.63,11.63C661.74,318.31,656.53,323.52,650.11,323.52z M650.11,293.97
	c-9.89,0-17.92,8.02-17.92,17.92c0,9.89,8.02,17.92,17.92,17.92c9.89,0,17.92-8.02,17.92-17.92
	C668.03,301.99,660.01,293.97,650.11,293.97z M668.73,297.45c2.31,0,4.19-1.87,4.19-4.19s-1.87-4.19-4.19-4.19
	c-2.31,0-4.19,1.87-4.19,4.19S666.42,297.45,668.73,297.45z"/>
<g id="SVGRepo_iconCarrier">
	<path class="st15" d="M776.46,435.28c-0.76-2.86-3-5.12-5.85-5.89c-5.16-1.39-25.85-1.39-25.85-1.39s-20.69,0-25.85,1.39
		c-2.85,0.77-5.09,3.02-5.85,5.89c-1.38,5.19-1.38,16.03-1.38,16.03s0,10.83,1.38,16.03c0.76,2.86,3,5.03,5.85,5.79
		c5.16,1.39,25.85,1.39,25.85,1.39s20.69,0,25.85-1.39c2.85-0.77,5.09-2.93,5.85-5.79c1.38-5.19,1.38-16.03,1.38-16.03
		S777.84,440.47,776.46,435.28z M738,461.14v-19.67l17.29,9.84L738,461.14z"/>
</g>
</svg>
