<?xml version="1.0" encoding="utf-8"?>
<!-- Generator: Adobe Illustrator 24.1.2, SVG Export Plug-In . SVG Version: 6.00 Build 0)  -->
<svg version="1.1" id="g" xmlns="http://www.w3.org/2000/svg" xmlns:xlink="http://www.w3.org/1999/xlink" x="0px" y="0px"
	 viewBox="0 0 1000 1000" style="enable-background:new 0 0 1000 1000;" xml:space="preserve">
<style type="text/css">
	.st0{fill:none;}
	.st1{fill:#43BEE5;stroke:#43BEE5;stroke-width:12;stroke-miterlimit:10;}
	.st2{fill:none;stroke:#43BEE5;stroke-width:12;stroke-miterlimit:10;}
	.st3{fill:none;stroke:#F40058;stroke-width:18;stroke-miterlimit:10;}
	.st4{fill:none;stroke:#41B853;stroke-width:12;stroke-miterlimit:10;}
	.st5{fill:none;stroke:#EFA500;stroke-width:12;stroke-miterlimit:10;}
	.st6{fill:none;stroke:#F40058;stroke-width:8;stroke-miterlimit:10;}
	.st7{fill:none;stroke:#41B853;stroke-width:8;stroke-miterlimit:10;}
	.st8{fill:none;stroke:#EFA500;stroke-width:8;stroke-miterlimit:10;}
	.st9{fill:none;stroke:#EBA500;stroke-width:8;stroke-miterlimit:10;}
	.st10{fill:#EFA500;}
	.st11{fill:#41B853;}
	.st12{fill:#F40058;}
	.st13{fill:#43BEE5;}
	.st14{fill:#FFFFFF;}
	.st15{fill-rule:evenodd;clip-rule:evenodd;fill:#FFFFFF;}
	.st16{fill:#43BEE5;stroke:#43BEE5;stroke-width:8;stroke-miterlimit:10;}
</style>
<g>
	<line class="st0" x1="449.3" y1="371.5" x2="580.3" y2="483.5"/>
	<path class="st1" d="M468.8,339"/>
	<path class="st1" d="M468.8,998"/>
	<path class="st2" d="M565.5,567.3"/>
	<path class="st2" d="M360.8,363"/>
	<path class="st1" d="M594.8,613"/>
	<path class="st1" d="M594.8,991"/>
	<path class="st1" d="M504.8,187"/>
	<path class="st1" d="M504.8,999"/>
	<path class="st1" d="M426.8,281"/>
	<path class="st1" d="M426.8,1000"/>
	<path class="st1" d="M580.8,302"/>
	<path class="st1" d="M580.8,999"/>
	<path class="st1" d="M544.8,259"/>
	<path class="st1" d="M544.8,1000"/>
	<line class="st3" x1="487.8" y1="1000" x2="487.8" y2="93"/>
	<line class="st4" x1="522.8" y1="1000" x2="522.8" y2="251"/>
	<line class="st5" x1="457.8" y1="1000" x2="457.8" y2="186"/>
	<line class="st6" x1="489.8" y1="695" x2="640.9" y2="543.8"/>
	<line class="st6" x1="639.8" y1="546" x2="639.8" y2="356"/>
	<path class="st7" d="M727.8,268"/>
	<path class="st7" d="M639.8,356"/>
	<line class="st8" x1="457.8" y1="772" x2="279.8" y2="593"/>
	<line class="st7" x1="522.8" y1="567" x2="376.8" y2="422"/>
	<line class="st7" x1="377.8" y1="425" x2="377.8" y2="302"/>
	<line class="st9" x1="280.8" y1="596" x2="280.8" y2="541"/>
	<circle class="st10" cx="281.3" cy="498.5" r="47.5"/>
	<circle class="st11" cx="220.3" cy="234.5" r="47.5"/>
	<circle class="st12" cx="639.3" cy="310.5" r="47.5"/>
	<circle class="st13" cx="747.3" cy="526.7" r="50.7"/>
	<line class="st7" x1="376.9" y1="390.1" x2="253.8" y2="268"/>
	<circle class="st10" cx="457.8" cy="174" r="13"/>
	<circle class="st11" cx="522.8" cy="241" r="13"/>
	<circle class="st11" cx="377.8" cy="294" r="13"/>
	<line class="st9" x1="370.8" y1="683" x2="370.8" y2="621"/>
	<circle class="st10" cx="370.8" cy="609" r="13"/>
	<circle class="st12" cx="487.8" cy="77" r="20"/>
	<line class="st8" x1="458.3" y1="906.7" x2="586.9" y2="778.1"/>
	<line class="st9" x1="585.8" y1="781" x2="585.8" y2="738"/>
	<circle class="st10" cx="585.8" cy="728" r="13"/>
	<line class="st3" x1="487.8" y1="499" x2="487.8" y2="901"/>
	<line class="st5" x1="457.8" y1="476" x2="457.8" y2="546"/>
	<line class="st6" x1="639.8" y1="310" x2="740.3" y2="209.5"/>
	<circle class="st12" cx="747.8" cy="200" r="13"/>
	<g>
		<path class="st14" d="M741.3,492.4c0-0.1,0-0.2,0.3-0.2c0.6-0.1,0.9,0,1.3-0.2c1.4-0.6,2.9-1.2,4.2-1.9c0.7-0.3,1.9,0,1.9-1.3
			c4.9-0.8,9.7-0.2,14.5,0.5c0,3.8,0,7.4,0,10.9c-3.1,0.3-6.1,0.6-9.3,0.8c-1.2-0.6-1.5-0.3-1.4,0.9c-0.3,0.2-0.5,0.4-1,0.6
			c-0.7,0.4-1.3,0.7-1.7,1.2c-0.1,0.2,0.2,0.7,0.3,1.1c-0.2,4-0.3,7.9-0.5,12c4.4,0,8.6,0,12.9,0c-0.7,4.4-1.3,8.7-2,13.2
			c-3.5,0-7.1,0-10.7,0c0,10.9,0,21.7,0,32.4c-0.7,0.2-1.3,0.4-1.8,0.7c-3.5,0.1-7.2,0.1-10.9,0.1c-0.6-0.3-1.1-0.6-1.8-1
			c0-10.4,0-21.3,0-32.2c-4,0-7.8,0-11.7,0c0-4.4,0-8.7,0-13.1c3.9,0,7.7,0,11.7,0c0-3.6,0-7.1,0.1-10.8c0.9-0.7,1.8-1.2,0.2-1.8
			c0.2-1.2,0.3-2.3,0.6-3.6c0.4-0.3,0.8-0.5,0.9-0.8c0.4-0.8,0.7-1.6,1-2.5c0.2-0.6,0.1-1.3,0.2-1.9c0.4-0.5,0.7-0.9,1.3-1.5
			C741.2,493.9,741.4,493.3,741.3,492.4z"/>
		<path class="st14" d="M748.9,488.7c0.1,1.3-1.1,1-1.8,1.3c-1.4,0.7-2.8,1.3-4.2,1.9c-0.3,0.1-0.7,0.1-1.2,0.2
			c1.5-1.7,3.7-2.4,5.8-3.1C747.9,488.8,748.3,488.8,748.9,488.7z"/>
		<path class="st14" d="M738.5,495.4c0,0.6,0.1,1.2-0.1,1.8c-0.2,0.8-0.6,1.7-1,2.5c-0.1,0.3-0.5,0.5-0.9,0.7
			C737.1,498.8,737.8,497.1,738.5,495.4z"/>
		<path class="st14" d="M750.6,504.7c-0.2-0.3-0.5-0.9-0.4-1.1c0.4-0.5,1-0.8,1.6-1.2C751.5,503.2,751.1,503.9,750.6,504.7z"/>
		<path class="st14" d="M735.9,504.2c1.6,0.5,0.7,1.1-0.2,1.6C735.7,505.3,735.8,504.8,735.9,504.2z"/>
		<path class="st14" d="M741.2,492.4c0.2,0.9,0,1.5-1.2,1.4C740.2,493.3,740.7,492.9,741.2,492.4z"/>
		<path class="st14" d="M752.9,501.7c-0.2-1.2,0.1-1.4,1.2-0.8C753.8,501.2,753.4,501.5,752.9,501.7z"/>
	</g>
	<path class="st15" d="M639.9,276c-9.5,0-10.7,0-14.4,0.2c-3.7,0.2-6.3,0.8-8.5,1.6c-2.3,0.9-4.2,2.1-6.2,4s-3.1,3.9-4,6.2
		c-0.9,2.2-1.5,4.8-1.6,8.5c-0.2,3.7-0.2,4.9-0.2,14.4c0,9.5,0,10.7,0.2,14.4c0.2,3.7,0.8,6.3,1.6,8.5c0.9,2.3,2.1,4.2,4,6.2
		s3.9,3.1,6.2,4c2.2,0.9,4.8,1.5,8.5,1.6c3.7,0.2,4.9,0.2,14.4,0.2c9.5,0,10.7,0,14.4-0.2c3.7-0.2,6.3-0.8,8.5-1.6
		c2.3-0.9,4.2-2.1,6.2-4s3.1-3.9,4-6.2c0.9-2.2,1.5-4.8,1.6-8.5c0.2-3.7,0.2-4.9,0.2-14.4c0-9.5,0-10.7-0.2-14.4
		c-0.2-3.7-0.8-6.3-1.6-8.5c-0.9-2.3-2.1-4.2-4-6.2s-3.9-3.1-6.2-4c-2.2-0.9-4.8-1.5-8.5-1.6C650.5,276,649.4,276,639.9,276z
		 M639.9,282.3c9.3,0,10.4,0,14.1,0.2c3.4,0.2,5.3,0.7,6.5,1.2c1.6,0.6,2.8,1.4,4,2.6c1.2,1.2,2,2.4,2.6,4c0.5,1.2,1,3.1,1.2,6.5
		c0.2,3.7,0.2,4.8,0.2,14.1s0,10.4-0.2,14.1c-0.2,3.4-0.7,5.3-1.2,6.5c-0.6,1.6-1.4,2.8-2.6,4s-2.4,2-4,2.6c-1.2,0.5-3.1,1-6.5,1.2
		c-3.7,0.2-4.8,0.2-14.1,0.2c-9.3,0-10.4,0-14.1-0.2c-3.4-0.1-5.3-0.7-6.5-1.2c-1.6-0.6-2.8-1.4-4-2.6c-1.2-1.2-2-2.4-2.6-4
		c-0.5-1.2-1-3.1-1.2-6.5c-0.2-3.7-0.2-4.8-0.2-14.1s0-10.4,0.2-14.1c0.2-3.4,0.7-5.3,1.2-6.5c0.6-1.6,1.4-2.8,2.6-4s2.4-2,4-2.6
		c1.2-0.5,3.1-1,6.5-1.2C629.5,282.3,630.6,282.3,639.9,282.3z M639.9,322.5c-6.4,0-11.6-5.2-11.6-11.6s5.2-11.6,11.6-11.6
		s11.6,5.2,11.6,11.6S646.3,322.5,639.9,322.5z M639.9,293c-9.9,0-17.9,8-17.9,17.9c0,9.9,8,17.9,17.9,17.9c9.9,0,17.9-8,17.9-17.9
		C657.8,301,649.8,293,639.9,293z M658.5,296.5c2.3,0,4.2-1.9,4.2-4.2s-1.9-4.2-4.2-4.2c-2.3,0-4.2,1.9-4.2,4.2
		S656.2,296.5,658.5,296.5z"/>
	<line class="st1" x1="427.8" y1="1000" x2="427.8" y2="788.8"/>
	<line class="st16" x1="427.8" y1="851.3" x2="716.3" y2="562.7"/>
	<circle class="st13" cx="427.8" cy="788.8" r="13"/>
	<line class="st3" x1="487.8" y1="727.9" x2="487.8" y2="828.3"/>
	<g id="g8" transform="matrix(1.3333333,0,0,-1.3333333,0,239.65333)">
		<g id="g10" transform="scale(0.1)">
			<path id="path12" class="st15" d="M1787.2,6.6c-6.2,3.4-36.8,19.9-42.5,22.2c-5.7,2.3-9.9,3.5-14.4-2.6c-4.5-6.2-17.2-20-21-24.1
				c-3.9-4.1-7.6-4.5-13.8-1.1c-6.2,3.4-26.4,10.9-49.8,33.4c-18.2,17.5-30.2,38.7-33.6,45.2c-3.5,6.5,0,9.8,3.3,12.8
				c3,2.7,6.6,7.2,9.9,10.8c3.3,3.6,4.5,6.2,6.7,10.3c2.3,4.2,1.4,7.9-0.1,11.1c-1.5,3.2-13,34.9-17.8,47.8
				c-4.8,12.9-10.2,11-13.9,11.1c-3.7,0.1-7.9,0.8-12.1,1c-4.2,0.2-11.2-1.2-17.2-7.3c-6-6.1-23-20.8-24.2-52
				c-1.2-31.2,20.4-62.2,23.4-66.5c3-4.4,41.2-72,104.7-99.8c63.5-27.8,63.8-19.3,75.5-18.7c11.7,0.6,38.1,13.9,43.9,28.5
				c5.8,14.6,6.3,27.3,4.8,30C1797.6,1.4,1793.4,3.2,1787.2,6.6z M1670.8-143.7c-42,0-81.1,12.6-113.7,34.2l-79.4-25.4l25.8,76.8
				c-24.7,34.1-39.4,76-39.4,121.2c0,114,92.7,206.8,206.7,206.8c114,0,206.8-92.7,206.8-206.8C1877.5-51,1784.8-143.7,1670.8-143.7
				z M1670.8,311.4c-137.2,0-248.3-111.2-248.3-248.4c0-46.9,13-90.8,35.6-128.2l-44.8-133.2l137.5,44c35.6-19.7,76.5-30.9,120-30.9
				c137.2,0,248.4,111.2,248.4,248.4C1919.1,200.2,1807.9,311.4,1670.8,311.4"/>
		</g>
	</g>
	<path class="st14" d="M251.8,507.1c0-12.3,6.2-24.7,13.4-24.7c3.8,0,7.2,2.4,12.3,9.6c-4.8,7.2-7.5,12-7.5,12
		c-6.5,9.9-8.6,12.3-12.3,12.3C253.9,516,251.8,512.9,251.8,507.1 M293.9,502.6l-4.5-7.2c-1-2.1-2.4-3.8-3.4-5.5
		c4.1-6.2,7.2-9.2,11.3-9.2c8.2,0,14.7,12,14.7,26.7c0,5.5-1.7,8.9-5.5,8.9C302.5,516,300.8,513.6,293.9,502.6 M282.3,484.8
		c-6.2-7.5-11-10.6-17.1-10.6c-12.3,0-21.6,16.1-21.6,32.9c0,10.6,5.1,17.1,13.7,17.1c6.2,0,10.6-2.7,18.5-16.8c0,0,3.4-5.8,5.5-9.9
		c0.7,1.4,1.7,2.7,2.4,4.1l3.8,6.2c7.2,12,11.3,16.1,18.5,16.1c8.2,0,13-6.9,13-17.5c0-17.8-9.6-32.5-21.2-32.5
		C291.5,474.2,286.8,479,282.3,484.8"/>
</g>
</svg>
